<?xml version="1.0" encoding="utf-8"?>
<!-- Generator: Adobe Illustrator 23.0.3, SVG Export Plug-In . SVG Version: 6.00 Build 0)  -->
<svg version="1.1" id="Capa_1" xmlns="http://www.w3.org/2000/svg" xmlns:xlink="http://www.w3.org/1999/xlink" x="0px" y="0px"
	 viewBox="0 0 480 480" style="enable-background:new 0 0 480 480;" xml:space="preserve">
<style type="text/css">
	.st0{fill:url(#SVGID_1_);}
</style>
<linearGradient id="SVGID_1_" gradientUnits="userSpaceOnUse" x1="8" y1="240" x2="472" y2="240">
	<stop  offset="0" style="stop-color:#88B14B"/>
	<stop  offset="1" style="stop-color:#0C4C8A"/>
</linearGradient>
<path class="st0" d="M11.3,56H64V3.3L11.3,56z M344,0h16v32h-16V0z M424,288h48v192h-48V288z M144,392c0,4.4,3.6,8,8,8h48
	c4.4,0,8-3.6,8-8H144z M448,252.8L432.6,272h30.7L448,252.8z M168,416v8c0,4.4,3.6,8,8,8s8-3.6,8-8v-8H168z M296,32h32V0H80v64
	c0,4.4-3.6,8-8,8H8v408h320V163.3l-37.7-37.7c-1.5-1.5-2.3-3.5-2.3-5.7V40C288,35.6,291.6,32,296,32z M248,48h24v16h-24V48z M272,80
	v16h-64V80H272z M168,48h64v16h-64V48z M312,424h-64v-16h64V424z M312,392h-64v-16h64V392z M312,360h-64v-16h64V360z M286,271.9
	c-12.1,27.7-34.2,49.9-62,62V392c0,13.3-10.7,24-24,24v8c0,13.3-10.7,24-24,24s-24-10.7-24-24v-8c-13.3,0-24-10.7-24-24v-58.1
	c-60.7-26.5-88.5-97.2-62-158s97.2-88.5,158-62C284.7,140.5,312.5,211.2,286,271.9z M344,179.3V480h16V195.3L344,179.3z
	 M276.1,195.9C263.6,151,222.6,120,176,120c-57.4,0-104,46.5-104,103.9c0,46.6,31,87.6,75.9,100.1l-11.8-82.9l15.8-2.3l12.6,88.5
	c7.6,0.9,15.3,0.9,22.9,0l12.6-88.5l15.8,2.3L204.1,324C259.4,308.6,291.6,251.2,276.1,195.9z M236.4,231.2L208,216.9l-28.4,14.3
	c-2.3,1.1-4.9,1.1-7.2,0L144,216.9l-28.4,14.3l-7.2-14.3l32-16c2.3-1.1,4.9-1.1,7.2,0l28.4,14.2l28.4-14.2c2.3-1.1,4.9-1.1,7.2,0
	l32,16L236.4,231.2z M144,339.5V352h64v-12.5C187.1,345.5,164.9,345.5,144,339.5z M144,368h64v8h-64V368z M463,138.3L372.7,48H304
	v68.7l90.3,90.3c3.1,3.1,8.2,3.1,11.3,0l57.4-57.4C466.2,146.5,466.2,141.5,463,138.3z M344,96c-4.4,0-8-3.6-8-8s3.6-8,8-8
	s8,3.6,8,8S348.4,96,344,96z M397.7,181.7l-11.3-11.3l40-40l11.3,11.3L397.7,181.7z"/>
</svg>
