<?xml version="1.0" encoding="utf-8"?>
<!-- Generator: Adobe Illustrator 23.0.3, SVG Export Plug-In . SVG Version: 6.00 Build 0)  -->
<svg version="1.1" id="Layer_1" xmlns="http://www.w3.org/2000/svg" xmlns:xlink="http://www.w3.org/1999/xlink" x="0px" y="0px"
	 viewBox="0 0 512 512" style="enable-background:new 0 0 512 512;" xml:space="preserve">
<style type="text/css">
	.st0{fill:url(#SVGID_1_);}
	.st1{fill:#FFFFFF;}
</style>
<linearGradient id="SVGID_1_" gradientUnits="userSpaceOnUse" x1="2.945" y1="256" x2="509.055" y2="256">
	<stop  offset="0" style="stop-color:#00CCFF"/>
	<stop  offset="1" style="stop-color:#006E8A"/>
</linearGradient>
<circle class="st0" cx="256" cy="256" r="253.1"/>
<g id="Outline">
	<g>
		<path class="st1" d="M433.9,310.8c-3.4,0-6.1,2.7-6.1,6.1v36.8c0,3.4-2.7,6.1-6.1,6.1H90.4c-3.4,0-6.1-2.7-6.1-6.1V194.3
			c0-3.4-2.7-6.1-6.1-6.1c-3.4,0-6.1,2.7-6.1,6.1v159.5c0,10.2,8.2,18.4,18.4,18.4h112.7l-18.4,36.8h-39.1c-3.4,0-6.1,2.7-6.1,6.1
			c0,3.4,2.7,6.1,6.1,6.1h220.8c3.4,0,6.1,2.7,6.1,6.1v6.1H133.3c-3.4,0-6.1,2.7-6.1,6.1c0,3.4,2.7,6.1,6.1,6.1h245.3
			c3.4,0,6.1-2.7,6.1-6.1v-12.3c0-10.2-8.2-18.4-18.4-18.4h-39.1l-18.4-36.8h112.7c10.2,0,18.4-8.2,18.4-18.4v-36.8
			C440,313.5,437.3,310.8,433.9,310.8z M313.5,408.9H198.5l18.4-36.8h78.3L313.5,408.9z"/>
		<path class="st1" d="M421.6,102.3H90.4c-10.2,0-18.4,8.2-18.4,18.4v49.1c0,3.4,2.7,6.1,6.1,6.1c3.4,0,6.1-2.7,6.1-6.1v-49.1
			c0-3.4,2.7-6.1,6.1-6.1h331.2c3.4,0,6.1,2.7,6.1,6.1v171.7c0,3.4,2.7,6.1,6.1,6.1c3.4,0,6.1-2.7,6.1-6.1V120.7
			C440,110.5,431.8,102.3,421.6,102.3z"/>
		<path class="st1" d="M188.5,249.5c-10.2,0-18.4,8.2-18.4,18.4c0,3.1,0.8,6.1,2.3,8.7l-32.1,35.6c-2.2-0.9-4.6-1.4-7.1-1.4
			c-10.2,0-18.4,8.2-18.4,18.4c0,10.2,8.2,18.4,18.4,18.4c10.2,0,18.4-8.2,18.4-18.4c0-3-0.8-6-2.3-8.7l32-35.6
			c2.2,0.9,4.6,1.4,7.1,1.4c3.1,0,6.1-0.8,8.8-2.3l29.3,26.1c-3.8,9.4,0.7,20.1,10.1,24c2.2,0.9,4.6,1.4,6.9,1.4
			c3.4,0,6.1-2.7,6.1-6.1c0-3.4-2.7-6.1-6.1-6.1s-6.1-2.7-6.1-6.1s2.7-6.1,6.1-6.1s6.1,2.7,6.1,6.1s2.7,6.1,6.1,6.1
			c3.4,0,6.1-2.7,6.1-6.1c0-3.9-1.2-7.6-3.5-10.7l35.5-51.3c1.6,0.5,3.2,0.7,4.8,0.7c2.7,0,5.4-0.6,7.9-1.8l18.4,18.4
			c-4.4,9.1-0.6,20.2,8.5,24.6c9.1,4.4,20.2,0.6,24.6-8.5c2.8-5.7,2.4-12.4-1-17.8l27.4-34.3c2,0.7,4,1.1,6.1,1.1
			c10.2,0,18.4-8.2,18.4-18.4c0-10.2-8.2-18.4-18.4-18.4c-3.4,0-6.1,2.7-6.1,6.1s2.7,6.1,6.1,6.1c3.4,0,6.1,2.7,6.1,6.1
			s-2.7,6.1-6.1,6.1c-3.4,0-6.1-2.7-6.1-6.1s-2.7-6.1-6.1-6.1c-3.4,0-6.1,2.7-6.1,6.1c0,3.4,1,6.8,2.8,9.7L348,262.8
			c-2-0.7-4-1.1-6.1-1.1c-2.7,0-5.4,0.6-7.9,1.8l-18.4-18.4c4.4-9.2,0.5-20.2-8.7-24.5c-9.2-4.4-20.2-0.5-24.5,8.7
			c-1.2,2.4-1.8,5.1-1.8,7.8c0,3.9,1.2,7.6,3.5,10.7l-35.5,51.3c-1.6-0.5-3.2-0.7-4.8-0.7c-3.1,0-6.1,0.8-8.8,2.3l-29.3-26.1
			c3.8-9.4-0.7-20.1-10.1-24C193.3,249.9,190.9,249.5,188.5,249.5z M348,280.1c0,3.4-2.7,6.1-6.1,6.1c-3.4,0-6.1-2.7-6.1-6.1
			c0-3.4,2.7-6.1,6.1-6.1C345.3,274,348,276.7,348,280.1z M298.9,231.1c3.4,0,6.1,2.7,6.1,6.1s-2.7,6.1-6.1,6.1
			c-3.4,0-6.1-2.7-6.1-6.1S295.5,231.1,298.9,231.1z M133.3,335.3c-3.4,0-6.1-2.7-6.1-6.1c0-3.4,2.7-6.1,6.1-6.1
			c3.4,0,6.1,2.7,6.1,6.1C139.5,332.6,136.7,335.3,133.3,335.3z M182.4,267.9c0-3.4,2.7-6.1,6.1-6.1c3.4,0,6.1,2.7,6.1,6.1
			c0,3.4-2.7,6.1-6.1,6.1C185.1,274,182.4,271.3,182.4,267.9z"/>
		<path class="st1" d="M145.6,126.8c-23.7,0-42.9,19.2-42.9,42.9s19.2,42.9,42.9,42.9s42.9-19.2,42.9-42.9S169.3,126.8,145.6,126.8z
			 M175.7,163.6h-23.9v-23.9C163.8,142.1,173.2,151.6,175.7,163.6z M145.6,200.4c-16.9,0-30.7-13.7-30.7-30.6
			c0-14.6,10.3-27.2,24.6-30.1v30.1c0,3.4,2.7,6.1,6.1,6.1h30.1C172.7,190.1,160.2,200.4,145.6,200.4z"/>
		<circle class="st1" cx="213.1" cy="163.6" r="6.1"/>
		<circle class="st1" cx="237.6" cy="163.6" r="6.1"/>
		<circle class="st1" cx="262.1" cy="163.6" r="6.1"/>
		<circle class="st1" cx="286.7" cy="163.6" r="6.1"/>
		<circle class="st1" cx="213.1" cy="188.1" r="6.1"/>
		<circle class="st1" cx="237.6" cy="188.1" r="6.1"/>
		<circle class="st1" cx="262.1" cy="188.1" r="6.1"/>
		<circle class="st1" cx="286.7" cy="188.1" r="6.1"/>
		<circle class="st1" cx="311.2" cy="188.1" r="6.1"/>
		<circle class="st1" cx="335.7" cy="188.1" r="6.1"/>
		<circle class="st1" cx="213.1" cy="139.1" r="6.1"/>
		<circle class="st1" cx="237.6" cy="139.1" r="6.1"/>
		<path class="st1" d="M415.5,316.9c0-3.4-2.7-6.1-6.1-6.1h-30.7c-3.4,0-6.1,2.7-6.1,6.1s2.7,6.1,6.1,6.1h30.7
			C412.7,323.1,415.5,320.3,415.5,316.9z"/>
		<path class="st1" d="M348,335.3c-3.4,0-6.1,2.7-6.1,6.1c0,3.4,2.7,6.1,6.1,6.1h55.2c3.4,0,6.1-2.7,6.1-6.1c0-3.4-2.7-6.1-6.1-6.1
			H348z"/>
		<path class="st1" d="M403.2,126.8h-73.6c-3.4,0-6.1,2.7-6.1,6.1v24.5c0,3.4,2.7,6.1,6.1,6.1h73.6c3.4,0,6.1-2.7,6.1-6.1v-24.5
			C409.3,129.5,406.6,126.8,403.2,126.8z M335.7,139.1H348v12.3h-12.3V139.1z M360.3,139.1h12.3v12.3h-12.3V139.1z M397.1,151.3
			h-12.3v-12.3h12.3V151.3z"/>
	</g>
</g>
</svg>
