<?xml version="1.0" encoding="UTF-8" standalone="no"?> <svg id="Layer_1" data-name="Layer 1" xmlns="http://www.w3.org/2000/svg" viewBox="0 0 128 128"><defs><style>.cls-1{fill:#2d3e50;}.cls-2{fill:#1d75b8;}</style></defs><title>v</title><path class="cls-1" d="M120.834,46.66566A61.68358,61.68358,0,0,0,2.31639,70.67722v37.574h.01636a7.66162,7.66162,0,0,0,3.59885,6.369l7.01371,4.38464H23.27716a3.31778,3.31778,0,0,0,3.31814-3.31814V81.75023a3.31778,3.31778,0,0,0-3.31814-3.31814H15.23868V70.67722a48.76132,48.76132,0,0,1,97.52264,0v7.75486h-8.03848a3.31786,3.31786,0,0,0-3.31823,3.31814V115.6867a3.31786,3.31786,0,0,0,3.31823,3.31814H115.0547l7.01363-4.38464a7.66141,7.66141,0,0,0,3.59885-6.369h.01644v-37.574A61.32411,61.32411,0,0,0,120.834,46.66566Z"/><path class="cls-2" d="M59.07539,56.91971A25.89507,25.89507,0,0,0,38.15776,83.17523c.046,1.33933.23729,35.82961.23729,35.82961l16.92854-12.34046a25.85764,25.85764,0,1,0,3.7518-49.74467Zm7.04086,40.82314a2.94941,2.94941,0,0,1-5.06054-2.04724,2.929,2.929,0,0,1,2.91-2.94063,2.94316,2.94316,0,0,1,2.1505,4.98787Zm3.16263-16.57649-.91072.81126a4.41866,4.41866,0,0,0-1.877,2.91579c-.07267.98534-.12431,2.01276-.12431,3.14919a.5848.5848,0,0,1-.1015.44966c-.021.02484-.09752.11476-.47256.10141-.23721-.01149-.48785-.01149-.72506-.01149H63.81845c-.71365,0-1.45029,0-2.16394.01149-.31377,0-.39988-.08806-.39988-.4-.06313-2.2001-.04978-4.70266.76148-6.48776a7.79652,7.79652,0,0,1,2.801-2.97511,10.70722,10.70722,0,0,0,2.426-2.22707,3.468,3.468,0,0,0,.574-3.79008,4.41684,4.41684,0,0,0-3.926-2.12371,4.69974,4.69974,0,0,0-4.586,3.56437c-.2258.7232-.28893.773-.5645.773a5.18559,5.18559,0,0,1-.60066-.05932c-1.21114-.16462-2.43757-.31377-3.66206-.463-.43816-.05172-.50129-.21236-.463-.53957.48785-5.17539,5.514-7.875,10.22833-7.875a10.6628,10.6628,0,0,1,7.08665,2.449A7.51925,7.51925,0,0,1,73.99506,74.028C73.98162,77.01848,71.51726,79.19,69.27887,81.16636Z"/></svg>