<?xml version="1.0" encoding="UTF-8" standalone="no"?> <svg id="Layer_1" data-name="Layer 1" xmlns="http://www.w3.org/2000/svg" viewBox="0 0 128 128"><defs><style>.cls-1{fill:#2d3e50;}.cls-2{fill:#1d75b8;}</style></defs><title>a</title><path class="cls-1" d="M114.211,107.1349V64.91543a40.95327,40.95327,0,0,1-8.04259,10.37574V107.1349H78.06432a6.13308,6.13308,0,0,1-.73691,1.42072,6.23375,6.23375,0,0,1-5.12766,2.68222H55.80024a6.24366,6.24366,0,0,1-5.86456-4.10295H21.83359V52.49432A3.08872,3.08872,0,0,1,24.922,49.40589H37.978a40.54919,40.54919,0,0,1,.02041-8.04258H24.922A11.13173,11.13173,0,0,0,13.789,52.49432V107.1349H1.73938v.03471c0,2.24742,1.51666,4.33769,3.41912,6.07479A15.664,15.664,0,0,0,9.96772,115.894a40.72037,40.72037,0,0,0,7.83029,1.68812,52.40154,52.40154,0,0,0,7.17709.48379L64,118.04955l39.02694.01633a52.423,52.423,0,0,0,7.17708-.48379,40.66432,40.66432,0,0,0,7.82826-1.68812,15.676,15.676,0,0,0,4.81125-2.64957c1.90042-1.73711,3.41709-3.82737,3.41709-6.07479v-.03471Z"/><path class="cls-2" d="M113.69459,40.52027a35.57674,35.57674,0,1,0-70.44813,9.994,35.06235,35.06235,0,0,0,1.07778,4.995,35.76184,35.76184,0,0,0,4.45608,8.83663c.01838.28374.0347.56748.03878.84713a16.39221,16.39221,0,0,1-6.59328,13.52134.85133.85133,0,0,0,.37967,1.52483,25.35563,25.35563,0,0,0,17.81-4.06825c.16126-.10614.32048-.21637.47562-.32455l.13063-.0939a42.08217,42.08217,0,0,0,13.05593,5.07867,35.60251,35.60251,0,0,0,39.61687-40.31089ZM96.96438,34.36381l-.02654.02858L73.57557,61.45548a1.31656,1.31656,0,0,1-1.79222.01836l-11.53928-14.987-.051-.051A3.0254,3.0254,0,0,1,63.949,41.74094c.18575.1184,8.81622,5.91151,8.81622,5.91151L92.63894,30.13432l.049-.04695a3.0239,3.0239,0,1,1,4.27645,4.27644Z"/></svg>